<svg id="_x31_" enable-background="new 0 0 24 24" height="512" viewBox="0 0 24 24" width="512" xmlns="http://www.w3.org/2000/svg"><g><g><path d="m12 23c-.134 0-.263-.054-.356-.149l-9.808-9.971c-2.444-2.483-2.444-6.525 0-9.01 1.186-1.206 2.765-1.87 4.443-1.87 1.679 0 3.257.664 4.443 1.87l1.278 1.3 1.278-1.3c1.186-1.206 2.764-1.87 4.443-1.87 1.678 0 3.256.664 4.442 1.87 2.444 2.484 2.444 6.526 0 9.01l-9.807 9.971c-.093.095-.222.149-.356.149zm-5.721-20c-1.408 0-2.733.559-3.73 1.571-2.063 2.098-2.063 5.511 0 7.607l9.451 9.609 9.451-9.608c2.063-2.097 2.063-5.51 0-7.607-.997-1.013-2.322-1.572-3.73-1.572-1.409 0-2.733.559-3.73 1.571l-1.635 1.662c-.188.191-.525.191-.713 0l-1.635-1.662c-.996-1.012-2.32-1.571-3.729-1.571z"/></g></g></svg>